<svg width="400px" height="265px" viewBox="0 0 400 265" xmlns="http://www.w3.org/2000/svg">
  <path d="m 69.395939,42.661597 c 0.384765,-5.41002 0.654237,-10.858626 0.807966,-16.345904 0.07688,-5.487237 -0.462077,-11.360957 -1.616382,-17.6210718 4.541686,0.5410066 9.198669,1.1206434 13.971396,1.7389108 4.84959,0.541007 9.814476,1.004707 14.895105,1.391147 5.080626,0.309133 10.238126,0.42507 15.472476,0.347809 5.31167,-0.07731 10.70021,-0.463701 16.1656,-1.159274 l -3.92588,33.735104 h -2.19375 c 0.3079,-4.018829 0.53849,-7.689893 0.69267,-11.013193 0.23103,-3.400561 -0.11575,-6.337421 -1.03946,-8.810535 -0.92371,-2.550422 -2.69381,-4.598465 -5.31122,-6.144178 -2.54053,-1.62302 -6.42754,-2.704988 -11.66234,-3.245994 -0.76954,4.714402 -1.30848,10.047115 -1.61638,15.998094 -0.23104,5.873677 -0.3079,11.824658 -0.23104,17.85272 0.15418,6.028332 0.42365,11.824702 0.80841,17.389559 0.46164,5.564405 1.03901,10.317618 1.73168,14.259183 0.61581,3.477642 1.42422,6.298433 2.4248,8.462817 1.00102,2.163934 2.11688,3.902532 3.3485,5.216687 1.23206,1.313708 2.54054,2.279694 3.92588,2.89796 1.38579,0.618267 2.73314,1.159364 4.04162,1.623289 l -0.92371,2.665993 c -2.38636,-0.9274 -5.19592,-1.54566 -8.42913,-1.8548 -3.23321,-0.309132 -6.42754,-0.347716 -9.58389,-0.11574 -3.155895,0.23196 -6.119629,0.61827 -8.890761,1.15936 -2.694267,0.61827 -4.772727,1.31416 -6.235378,2.08677 L 85.09901,99.93018 c 1.385787,-0.77261 2.694266,-1.700012 3.92588,-2.782203 1.231612,-1.004574 2.34793,-2.357314 3.348505,-4.057326 1.001022,-1.77763 1.808988,-3.980153 2.424797,-6.608013 0.615802,-2.705032 1.00102,-6.066917 1.154746,-10.085654 0.07688,-2.55069 0.07688,-5.564408 0,-9.042499 0,-3.477642 -0.07688,-7.187696 -0.231039,-11.129261 -0.154182,-3.941572 -0.346335,-7.921725 -0.577374,-11.940419 -0.153723,-4.096134 -0.346333,-7.99907 -0.577373,-11.708764 -0.230593,-3.709694 -0.461633,-7.071625 -0.692672,-10.085746 -0.231041,-3.01412 -0.4232,-5.448649 -0.577374,-7.303497 -4.618551,0.231873 -8.27496,0.966077 -10.969226,2.202657 -2.617402,1.159273 -4.618551,2.859555 -6.004339,5.10084 -1.38579,2.163982 -2.309497,4.86897 -2.77113,8.114964 -0.462079,3.168686 -0.769983,6.955687 -0.923711,11.360955 l -3.233209,0.695573 z M 187.05614,92.626715 c -0.23059,1.00457 -0.61536,2.125348 -1.1543,3.361883 -0.53894,1.159365 -1.30893,2.202522 -2.3095,3.129924 -1.00058,1.005018 -2.23219,1.739048 -3.69484,2.202518 -1.38579,0.5411 -3.0406,0.57968 -4.96533,0.1162 -1.92429,-0.46392 -3.4638,-1.546116 -4.61856,-3.246126 -1.07743,-1.700461 -1.84742,-3.864395 -2.30949,-6.492256 -0.69267,1.082193 -1.57795,2.241555 -2.65539,3.478091 -1.00102,1.159362 -2.23264,2.202521 -3.69529,3.129921 -1.38534,1.004574 -3.00172,1.77763 -4.84959,2.31873 -1.77011,0.61827 -3.73327,0.85023 -5.88859,0.69544 -2.92531,-0.23197 -5.54227,-1.04316 -7.85176,-2.434486 -2.23219,-1.313708 -4.11849,-3.014165 -5.65801,-5.100933 -1.53951,-2.163934 -2.69426,-4.598419 -3.4638,-7.303451 -0.69267,-2.705032 -0.88528,-5.525821 -0.57737,-8.462815 0.3079,-2.936548 1.07788,-5.44865 2.30949,-7.535415 1.30848,-2.086316 2.92487,-3.748191 4.84959,-4.984726 1.92429,-1.313706 4.11805,-2.202521 6.58127,-2.666447 2.46368,-0.463475 5.00377,-0.57968 7.62117,-0.347718 3.4638,0.386752 6.35067,1.429911 8.65972,3.13037 2.3095,1.622841 4.08006,3.439056 5.31167,5.448203 0.38477,-3.554813 0.50007,-7.34204 0.34634,-11.360776 -0.15418,-4.09591 -0.76998,-7.805964 -1.84742,-11.129264 -1.07789,-3.400471 -2.7327,-6.182628 -4.96533,-8.346654 -2.23219,-2.241241 -5.27279,-3.323256 -9.12181,-3.245949 -2.69426,0 -4.92645,0.502331 -6.69701,1.507039 -1.69369,0.927446 -3.07903,2.048087 -4.15692,3.361929 -1.00057,1.313841 -1.69324,2.666355 -2.07846,4.057639 -0.38477,1.313704 -0.57737,2.356863 -0.57737,3.129921 0,0.773059 0.23104,1.661425 0.69312,2.666447 0.46163,0.9274 1.11587,1.816217 1.96271,2.665998 0.84685,0.773058 1.84742,1.391326 3.00217,1.85525 1.15475,0.463477 2.46323,0.579233 3.92588,0.34772 1.00058,-0.154801 1.88585,-0.502511 2.65584,-1.043606 0.76953,-0.541098 1.38534,-1.159364 1.84742,-1.854802 0.46207,-0.695439 0.76998,-1.429912 0.92371,-2.202522 0.23104,-0.77306 0.34633,-1.507084 0.34633,-2.202523 0,-0.773058 -0.23104,-1.429911 -0.69267,-1.971008 -0.46208,-0.618266 -1.00102,-1.082191 -1.61683,-1.391324 -0.6158,-0.309133 -1.30848,-0.386306 -2.07846,-0.231515 -0.76953,0.07718 -1.4622,0.424891 -2.07801,1.043159 0.69267,-0.07718 1.38534,0.07718 2.07801,0.463925 0.69312,0.309133 1.03946,1.00457 1.03946,2.086315 0,0.850231 -0.34634,1.507084 -1.03946,1.971008 -0.69267,0.386305 -1.4622,0.541096 -2.30905,0.463925 -0.84684,-0.07718 -1.61683,-0.42534 -2.3095,-1.043606 -0.69267,-0.69544 -1.039,-1.739046 -1.039,-3.129923 0,-1.314155 0.53894,-2.434485 1.61638,-3.36202 1.15475,-0.927446 2.46323,-1.391149 3.92588,-1.391149 1.77055,0 3.38693,0.695576 4.84959,2.086722 1.53951,1.391326 2.3095,3.323298 2.3095,5.79637 0,0.850228 -0.23104,1.77763 -0.69312,2.782204 -0.38477,0.9274 -1.00058,1.816217 -1.84742,2.666446 -0.8464,0.850228 -1.96272,1.584252 -3.34851,2.20252 -1.38534,0.541098 -3.00217,0.811645 -4.84959,0.811645 -1.84742,0 -3.50223,-0.347718 -4.96488,-1.043157 -1.46265,-0.77306 -2.69427,-1.70046 -3.69484,-2.782653 -1.00102,-1.158916 -1.77056,-2.395449 -2.3095,-3.709606 -0.46208,-1.390875 -0.69267,-2.705032 -0.69267,-3.941564 0,-1.236537 0.38476,-2.782205 1.1543,-4.637052 0.76998,-1.932154 1.96316,-3.748371 3.57954,-5.44865 1.6937,-1.70028 3.77216,-3.168689 6.23538,-4.405268 2.54009,-1.23658 5.54226,-1.854849 9.00651,-1.854849 9.31441,0 15.74195,3.284626 19.28262,9.85392 3.54111,6.491899 4.11848,16.191248 1.73212,29.098143 -0.92371,5.178101 -1.42377,9.390216 -1.50108,12.635896 -0.0769,3.246127 0.11574,5.834954 0.57737,7.767376 0.46208,1.931974 1.11632,3.284714 1.96316,4.057324 0.92371,0.77306 1.88586,1.236537 2.88643,1.391328 0.84685,0.154342 1.65526,0.07718 2.4248,-0.231962 0.6158,-0.154802 1.19318,-0.502513 1.73212,-1.043609 0.61581,-0.618266 1.03901,-1.545668 1.27005,-2.782205 z m -19.51365,-5.912577 c -0.0769,-2.782202 0.0384,-5.719198 0.34633,-8.810534 -0.61581,-2.395899 -1.88585,-4.598422 -3.81058,-6.607565 -1.84742,-2.086767 -3.96431,-3.3233 -6.35068,-3.710053 -1.77011,-0.309136 -3.61797,-0.270549 -5.54226,0.115741 -1.84742,0.309133 -3.50268,1.005022 -4.96489,2.086765 -1.46265,1.00502 -2.6174,2.434483 -3.46424,4.289287 -0.84685,1.85525 -1.15475,4.134944 -0.92371,6.839976 0.38477,4.17353 1.53951,7.342039 3.46425,9.505974 2.00115,2.163936 4.92645,3.130371 8.77546,2.898407 2.92486,-0.154801 5.38809,-0.888815 7.38969,-2.202519 2.07846,-1.391328 3.7717,-2.859823 5.08063,-4.405493 z m 69.39579,-39.763389 c -0.0767,1.314153 -0.23105,2.434483 -0.46211,3.361885 -0.15424,0.927851 -0.26946,1.777632 -0.3463,2.55069 -0.0767,0.695437 -0.0386,1.35229 0.11528,1.970558 0.15424,0.618269 0.57737,1.314156 1.27004,2.086764 -2.07845,-0.618265 -3.9643,-1.043157 -5.65755,-1.275119 -1.69368,-0.309136 -3.19478,-0.541096 -4.50324,-0.695438 -1.46268,-0.07718 -2.77158,-0.07718 -3.92588,0 0.76951,-1.082193 1.27004,-2.280143 1.50108,-3.593849 0.30789,-1.313705 0.53847,-2.936994 0.69265,-4.868968 0.0767,-1.391326 0,-2.820969 -0.23102,-4.28942 -0.23106,-1.468409 -1.00059,-2.395811 -2.30951,-2.782248 -0.53849,-0.0773 -1.11588,-0.115922 -1.73167,-0.115922 -0.61581,0 -1.30894,0.193202 -2.07847,0.579638 -0.76997,0.309133 -1.65526,0.850139 -2.65584,1.622973 -1.00057,0.77288 -2.11687,1.893523 -3.3485,3.361931 -1.77055,2.086541 -3.34849,4.328096 -4.73429,6.723995 -1.38534,2.318278 -2.5785,4.637007 -3.57953,6.955733 -1.00058,2.318278 -1.80899,4.520801 -2.4248,6.607564 -0.53895,2.009595 -0.84685,3.748639 -0.92373,5.216688 0,0.231962 -0.0386,0.386754 -0.11528,0.463925 0.15424,3.014167 0.34676,5.834954 0.57734,8.462817 0.23107,2.627861 0.46209,4.868968 0.69269,6.723769 0.23103,1.777632 0.53895,3.246129 0.9237,4.405493 0.46206,1.158916 0.96259,2.12535 1.50152,2.897958 0.53851,0.695439 1.11588,1.275123 1.73168,1.739046 0.61581,0.463477 1.19322,0.888817 1.73215,1.275121 l 0.23102,2.434485 c -1.07789,-0.463477 -2.61739,-0.811644 -4.61854,-1.043159 -2.00159,-0.154801 -4.15692,-0.154801 -6.46641,0 -2.2322,0.154342 -4.50326,0.502062 -6.81231,1.043159 -2.3095,0.541096 -4.27222,1.275122 -5.88905,2.202522 l -0.34633,-2.666448 c 2.15577,-0.849779 4.11849,-2.434481 5.88904,-4.752762 1.84742,-2.395898 3.00217,-6.105502 3.4638,-11.129262 0.23104,-2.473069 0.46208,-5.02331 0.69312,-7.651171 0.3079,-2.627863 0.50006,-5.293858 0.57738,-7.99889 0.0769,-2.705032 0.038,-5.487239 -0.11531,-8.347062 -0.15418,-2.859373 -0.57782,-5.796369 -1.27049,-8.810534 -0.6158,-2.163937 -1.30847,-4.173529 -2.07846,-6.028197 -0.61581,-1.545713 -1.42377,-2.975492 -2.42479,-4.289332 -0.92371,-1.391144 -1.96272,-2.241287 -3.11747,-2.550418 l -0.23104,-2.666359 c 0.92371,0.154581 2.07846,0.309133 3.4638,0.4637 1.46266,0.154622 3.00218,0.30918 4.619,0.463745 1.61638,0.07726 3.27164,0.115921 4.96487,0.115921 1.69372,0 3.31008,-0.0773 4.8496,-0.231872 -0.30788,1.391102 -0.73109,3.980197 -1.27006,7.767152 -0.4616,3.787135 -0.84683,8.037836 -1.15473,12.752013 1.00101,-2.318278 2.30949,-4.907552 3.92587,-7.76693 1.61685,-2.859731 3.50269,-5.487414 5.65803,-7.883267 2.15531,-2.395855 4.5801,-4.328006 7.27436,-5.796414 2.69426,-1.545713 5.65802,-2.163982 8.89079,-1.854847 1.92473,0.231871 3.50267,0.888816 4.73429,1.970783 1.30846,1.082013 2.30949,2.357224 3.00214,3.825633 0.76999,1.468405 1.27006,3.014119 1.5011,4.637138 0.30791,1.622974 0.42321,3.091382 0.34635,4.405089 z m 27.82748,-14.606772 c 3.23279,-0.0773 6.42753,0.579638 9.58346,1.970786 3.15632,1.391146 6.00432,3.477822 8.54442,6.260114 2.54052,2.782293 4.58055,6.182942 6.12007,10.201681 1.61638,3.941569 2.42479,8.462817 2.42479,13.563748 0,5.100481 -0.65423,9.621729 -1.96316,13.563298 -1.2316,3.864395 -2.92485,7.149109 -5.08062,9.854141 -2.07801,2.705032 -4.5028,4.791797 -7.27438,6.259844 -2.69428,1.391329 -5.54226,2.202973 -8.54445,2.434486 -3.38692,0.231962 -6.69699,-0.309134 -9.93022,-1.622841 -3.23275,-1.391324 -6.15807,-3.439056 -8.77545,-6.144088 -2.54009,-2.782202 -4.61856,-6.183123 -6.23495,-10.201862 -1.61682,-4.095909 -2.46367,-8.771949 -2.54051,-14.027223 -0.15384,-5.410063 0.50048,-10.085656 1.96315,-14.02722 1.5395,-4.01874 3.46381,-7.342174 5.7733,-9.969901 2.30903,-2.627681 4.88803,-4.598463 7.73601,-5.912351 2.84844,-1.313841 5.58114,-2.048043 8.1981,-2.202612 z m 4.84917,56.456925 c 1.6168,-0.154342 3.34893,-0.850229 5.19635,-2.086764 1.84741,-1.236534 3.46379,-3.052751 4.84957,-5.44865 1.38534,-2.473069 2.38638,-5.487236 3.00219,-9.042049 0.69265,-3.632431 0.65425,-7.883133 -0.11528,-12.752101 -0.76998,-4.86897 -1.92471,-8.810537 -3.46425,-11.824704 -1.53951,-3.014253 -3.23277,-5.332845 -5.08062,-6.955821 -1.77012,-1.70028 -3.57909,-2.782291 -5.42698,-3.245994 -1.84742,-0.541005 -3.46381,-0.772878 -4.84959,-0.695571 -2.23217,0.154562 -4.11804,0.927446 -5.65754,2.318546 -1.53952,1.313885 -2.84846,3.052795 -3.92589,5.216778 -1.00102,2.086493 -1.77055,4.482394 -2.3095,7.187426 -0.46162,2.705031 -0.73111,5.526268 -0.80841,8.462815 -0.15384,3.709604 0.11568,7.419658 0.80841,11.129264 0.69267,3.709604 1.88587,7.032902 3.57955,9.969897 1.61639,2.859377 3.65642,4.946141 6.11963,6.259844 2.46322,1.314157 5.1575,1.816219 8.08282,1.507084 z m 53.92328,4.289288 c 1.77056,0 3.42537,-0.618266 4.96489,-1.854803 1.53952,-1.236533 2.61742,-3.3233 3.23321,-6.259845 l 2.42481,0.927402 c -0.23104,1.854801 -0.96215,3.748188 -2.19377,5.680164 -1.23162,1.855249 -2.81,3.439504 -4.73429,4.753209 -1.92429,1.313708 -4.11848,2.163937 -6.58171,2.550243 -2.38636,0.386751 -4.84959,0 -7.38969,-1.158917 -2.77112,-1.314155 -4.77271,-3.014165 -6.00435,-5.100928 -1.2316,-2.086767 -2.00157,-4.482666 -2.30949,-7.187698 -0.30789,-2.782203 -0.34635,-5.757783 -0.11528,-8.926292 0.23106,-3.246127 0.34634,-6.608014 0.34634,-10.086105 0,-2.009143 -0.0386,-4.366457 -0.11528,-7.071489 0,-2.782203 -0.0769,-5.719197 -0.23106,-8.810535 -0.0767,-3.091338 -0.23059,-6.260024 -0.46163,-9.506018 -0.23104,-3.323256 -0.46207,-6.569249 -0.69267,-9.737982 -2.6174,0.309179 -5.11905,0.695573 -7.50543,1.159318 -2.30947,0.386396 -4.2722,0.888771 -5.88902,1.507039 -0.0769,-0.695573 -0.0769,-1.236534 0,-1.622976 0,-0.386438 0.0384,-0.734202 0.11528,-1.043381 v -1.159274 c 0,-0.463701 -0.0769,-1.081967 -0.23106,-1.854847 1.84744,-0.154582 3.88747,-0.309133 6.1201,-0.463701 2.30904,-0.154581 4.65699,-0.309177 7.04333,-0.463701 -0.0767,-1.082013 -0.15385,-2.125349 -0.23103,-3.130056 -0.0769,-1.082013 -0.192,-2.125352 -0.34634,-3.130104 -0.38475,-3.632387 -1.11632,-6.530616 -2.19375,-8.694597 -1.00102,-2.163981 -2.1169,-3.8256311 -3.34895,-4.9849049 -1.23162,-1.1592739 -2.38592,-1.932153 -3.46381,-2.3185926 -1.07788,-0.4637006 -1.88587,-0.7728298 -2.4248,-0.9274012 l 0.34635,-2.2026383 c 1.46264,0.6182854 3.2716,1.0433554 5.42696,1.2752102 2.15533,0.1545796 4.38796,0.1545796 6.69699,0 2.38638,-0.2318412 4.69589,-0.6182674 6.92806,-1.1592781 C 313.03064,1.545709 315.03176,0.85014015 316.72547,0 c -0.76999,2.1639945 -1.46266,5.6031945 -2.07847,10.317596 -0.53893,4.714446 -1.0006,10.201681 -1.3858,16.46184 4.00322,-0.231871 6.88964,-0.54105 8.66018,-0.927446 -0.38476,0.463703 -0.57736,1.236581 -0.57736,2.318548 0,1.004708 0.11568,1.932154 0.34634,2.782294 -1.30848,-0.154581 -2.6943,-0.231872 -4.15692,-0.231872 -1.46222,-0.0773 -2.96328,-0.115921 -4.50326,-0.115921 -0.23059,4.482574 -0.38477,9.158344 -0.46165,14.027314 -0.0769,4.869102 -0.0384,9.699484 0.11528,14.490831 0.23102,4.714627 0.53893,9.351633 0.92369,13.911468 0.46209,4.482662 1.039,8.617606 1.73213,12.404381 0.61581,2.705032 1.69324,4.637008 3.23277,5.79637 1.53996,1.159364 3.19476,1.777632 4.96533,1.854803 z" />
  <path d="m 18.243892,208.25607 c -0.769759,0 -1.347133,-0.23196 -1.73199,-0.69545 -0.307903,-0.46392 -0.4619,-0.96643 -0.4619,-1.50707 0,-0.54111 0.153996,-1.00503 0.4619,-1.39132 0.307903,-0.46348 0.769758,-0.65686 1.38561,-0.5797 -0.4619,-0.46347 -1.231659,-0.65685 -2.309365,-0.57967 -0.846757,0.15484 -1.655037,0.73447 -2.424795,1.73904 -0.692805,0.92739 -0.962232,2.04818 -0.80828,3.36189 0.077,1.39132 0.654328,2.70503 1.732035,3.94156 1.077662,1.23654 2.578746,1.81622 4.503165,1.73906 1.000753,0 1.962938,-0.27056 2.886694,-0.81165 0.923711,-0.5411 1.731991,-1.23655 2.424795,-2.08678 0.692806,-0.92739 1.231659,-1.97054 1.616561,-3.12991 0.384856,-1.15937 0.577328,-2.35732 0.577328,-3.59384 -0.077,-1.31371 -0.384901,-2.58884 -0.923753,-3.82538 -0.538854,-1.31413 -1.308613,-2.4735 -2.309321,-3.47809 -0.923754,-1.08173 -2.078414,-1.93196 -3.464024,-2.55023 -1.38561,-0.69591 -2.963648,-1.04363 -4.734115,-1.04363 -3.540978,0 -6.3121981,1.08221 -8.3136149,3.24615 -2.0014345,2.16395 -2.9251714,5.33244 -2.7712152,9.50596 0.076985,2.08678 0.6158289,4.21213 1.6165553,6.37605 1.0007082,2.08676 2.3862735,3.98018 4.156785,5.68062 1.8474648,1.70045 4.0028328,3.05275 6.4661498,4.05734 2.54027,1.08219 5.311444,1.62327 8.313613,1.62327 2.771178,0 5.196017,-0.54108 7.274387,-1.62327 2.078416,-1.08175 3.848927,-2.47309 5.311491,-4.17311 1.462563,-1.77761 2.540268,-3.78721 3.233074,-6.02832 0.769757,-2.24156 1.154659,-4.55984 1.154659,-6.95573 0,-1.54565 -0.269426,-3.24611 -0.80828,-5.10093 -0.461855,-1.8548 -1.347089,-3.82582 -2.655746,-5.91212 -1.231612,-2.08676 -2.88665,-4.28975 -4.965066,-6.60801 -2.078368,-2.31872 -4.695638,-4.67605 -7.851711,-7.07149 -3.079122,-2.39591 -6.004296,-4.63747 -8.775516,-6.72424 -2.694222,-2.08676 -5.08054,-4.13449 -7.1589099,-6.14409 -2.0014167,-2.08676 -3.6179764,-4.25069 -4.8496169,-6.4918 -1.1546687,-2.31873 -1.7320032,-4.90756 -1.7320032,-7.76738 0,-2.85938 0.500354,-5.60299 1.5010668,-8.23085 1.0776752,-2.70504 2.6172368,-5.06235 4.6186537,-7.07149 2.0784145,-2.0096 4.6186845,-3.59385 7.6208095,-4.75321 3.00217,-1.23654 6.427672,-1.77764 10.276554,-1.62284 2.232368,0.0772 4.349258,0.46347 6.350673,1.15936 2.078416,0.69544 4.002882,1.39088 5.773348,2.08631 1.847464,0.69589 3.579499,1.27557 5.196014,1.73905 1.616694,0.3863 3.117779,0.30913 4.503121,-0.23196 0.615805,-0.23197 1.154749,-0.57968 1.616382,-1.04316 0.385211,-0.38675 0.769979,-0.88882 1.154747,-1.50708 0.385215,-0.61827 0.654685,-1.4685 0.808415,-2.55069 l 3.233207,0.23196 c -0.23104,1.4685 -0.50051,3.3233 -0.808414,5.56486 -0.307902,2.2411 -0.538942,4.59841 -0.69267,7.07148 -0.07688,2.3959 -0.03842,4.7918 0.115302,7.1877 0.153722,2.31828 0.538941,4.32787 1.154746,6.02833 l -3.002175,0.69544 c -0.693118,-2.16394 -1.501086,-4.32787 -2.424795,-6.49226 -0.846846,-2.2411 -1.886299,-4.28928 -3.117915,-6.14408 -1.154299,-1.85481 -2.501612,-3.51623 -4.041174,-4.98473 -1.539562,-1.4685 -3.348504,-2.62786 -5.42692,-3.47809 -1.847465,-0.69544 -3.733404,-1.15936 -5.657868,-1.39088 -1.847469,-0.30913 -3.656457,-0.19336 -5.426968,0.34772 -1.693513,0.5411 -3.348505,1.50708 -4.965064,2.89796 -1.539561,1.39133 -2.963648,3.40047 -4.272259,6.02833 -1.308612,2.62786 -1.847465,5.56441 -1.616515,8.81054 0.307903,3.24613 1.193136,6.06691 2.6557,8.46282 0.846756,1.54566 1.847465,3.01416 3.002169,4.40549 1.231614,1.3137 2.501748,2.58882 3.810405,3.82536 1.308613,1.15936 2.6557,2.31873 4.04131,3.47809 1.462609,1.15891 2.886696,2.31828 4.272304,3.47766 2.694223,2.3959 5.195971,4.7918 7.505336,7.18769 2.309317,2.3959 4.27226,4.86895 5.888953,7.41922 1.693246,2.47306 3.002169,5.06233 3.925878,7.76736 0.923714,2.6274 1.385345,5.33243 1.385345,8.1151 0,2.85937 -0.692673,5.64158 -2.07846,8.3466 -1.385343,2.70503 -3.310074,5.10094 -5.773212,7.1877 -2.386316,2.08632 -5.195969,3.7482 -8.429043,4.98473 -3.156124,1.31369 -6.504626,1.97102 -10.045649,1.97102 -3.46398,0 -6.735533,-0.61873 -9.814656,-1.85526 -3.002125,-1.15891 -5.6193933,-2.85939 -7.8517597,-5.10049 C 5.0420278,221.51023 3.2715566,218.96 1.9629314,216.02299 0.6543103,213.00882 0,209.68598 0,206.05355 c 0,-2.85983 0.42337831,-5.25572 1.2701349,-7.1877 0.8467568,-2.0096 1.9629353,-3.63243 3.3485185,-4.86899 1.3856098,-1.23655 2.9636484,-2.12536 4.7341597,-2.66644 1.7705119,-0.54111 3.5794549,-0.81165 5.4269199,-0.81165 1.924463,0 3.771928,0.30914 5.54244,0.92785 1.847463,0.54066 3.46398,1.42947 4.84959,2.66598 1.385608,1.23656 2.463316,2.82125 3.233075,4.75325 0.846754,1.93198 1.270136,4.21211 1.270136,6.83951 0,1.85524 -0.423382,3.51668 -1.270136,4.98518 -0.769759,1.39089 -1.770468,2.58882 -3.002126,3.59387 -1.231659,0.92737 -2.578791,1.62284 -4.041354,2.08672 -1.38561,0.46349 -2.694222,0.65685 -3.92588,0.57969 -1.231614,-0.0771 -2.347797,-0.38674 -3.348505,-0.92785 -1.000753,-0.54065 -1.885987,-1.19749 -2.655745,-1.97056 -0.692805,-0.77305 -1.231658,-1.58424 -1.6165598,-2.43449 -0.3848568,-0.92738 -0.5773301,-1.81619 -0.5773301,-2.66644 0.076999,-0.77261 0.2309497,-1.62284 0.461855,-2.55023 0.3079479,-0.92741 0.7698029,-1.77764 1.3856099,-2.55068 0.615851,-0.84979 1.38561,-1.5071 2.309365,-1.97057 0.92371,-0.5411 2.039893,-0.81164 3.348505,-0.81164 1.231658,0 2.232366,0.3863 3.002169,1.15937 0.769758,0.69543 1.193136,1.58423 1.270135,2.66643 0.153962,0.92741 -0.077,1.73905 -0.692804,2.43448 -0.538854,0.61827 -1.231659,0.92741 -2.078415,0.92741 z m 75.51529,-52.97943 c 2.386365,-0.0772 4.811158,0.58013 7.274388,1.97101 2.46323,1.3137 4.69586,3.40047 6.69701,6.26029 2.07846,2.85938 3.73372,6.49181 4.96533,10.89685 1.30848,4.32834 1.96272,9.42879 1.96272,15.30277 0,5.87356 -0.84685,11.01307 -2.54009,15.41856 -1.6937,4.40504 -3.84902,8.07608 -6.46642,11.01305 -2.54009,2.85939 -5.38853,4.98473 -8.544431,6.37605 -3.1559,1.46851 -6.1965,2.12536 -9.121806,1.97056 -3.002171,-0.15444 -5.58114,-0.85021 -7.736463,-2.08674 -2.07846,-1.23656 -3.810138,-2.78221 -5.195923,-4.63703 -0.07688,2.08678 -0.153723,4.48266 -0.23104,7.18769 0,2.78221 -0.03842,5.52584 -0.115301,8.23087 v 7.53541 c 0.07688,2.39591 0.115301,4.32787 0.115301,5.79636 0.154182,3.55528 1.19318,6.22127 3.117911,7.99891 1.924284,1.8548 4.541688,3.05275 7.851761,3.59383 l -0.924159,2.20255 c -2.001147,-0.30915 -4.464374,-0.50209 -7.38968,-0.57971 -2.925306,0 -5.850165,0.11608 -8.775471,0.34772 -2.847993,0.30961 -5.503828,0.69589 -7.967055,1.15938 -2.463675,0.54108 -4.233783,1.15937 -5.311669,1.85479 l -1.039005,-1.97056 c 1.539517,-1.00457 2.924857,-1.971 4.156473,-2.89839 1.231611,-0.92743 2.309497,-2.31828 3.233208,-4.1731 1.000575,-1.77764 1.808988,-4.25068 2.424793,-7.41963 0.692672,-3.16854 1.231616,-7.41922 1.616384,-12.75212 0.307904,-5.33245 0.538943,-10.54958 0.693117,-15.65006 0.153723,-5.17811 0.231037,-10.04708 0.231037,-14.60691 0.07688,-4.55984 0.115302,-8.81053 0.115302,-12.75211 0,-4.01918 0.03842,-7.53542 0.115282,-10.54957 0.07688,-3.16895 -0.192603,-6.10549 -0.808411,-8.81053 -0.615807,-2.7822 -1.539517,-5.1781 -2.771132,-7.18769 -1.231612,-2.08677 -2.771131,-3.70961 -4.618549,-4.86897 -1.770558,-1.23654 -3.810585,-1.93198 -6.120084,-2.08677 l 0.69312,-2.7822 c 2.616954,0.30913 4.926451,0.5411 6.928049,0.69544 2.078011,0.0772 3.96431,0.11576 5.657554,0.11576 1.693695,-0.0772 3.233211,-0.19292 4.619001,-0.34772 1.462203,-0.23151 2.847993,-0.54065 4.15647,-0.9274 -0.307902,2.93699 -0.538494,5.75778 -0.692668,8.46281 -0.154182,2.70504 -0.269476,5.17811 -0.346339,7.41966 2.23219,-4.40549 5.080629,-7.88313 8.544431,-10.43382 3.541111,-2.62741 7.390128,-4.05732 11.546603,-4.28929 z m 12.586058,32.45994 c 0.0769,-2.39589 -0.19262,-5.13951 -0.80842,-8.23087 -0.6158,-3.16851 -1.57794,-6.14407 -2.88687,-8.92628 -1.30848,-2.7822 -3.002171,-5.06234 -5.080181,-6.83997 -2.078464,-1.77764 -4.541689,-2.51166 -7.39013,-2.20253 -2.924859,0.38631 -5.388532,1.70046 -7.389679,3.94157 -1.924734,2.16394 -3.502682,4.75321 -4.734296,7.76738 -1.154749,3.01418 -2.001595,6.22125 -2.540091,9.62173 -0.538942,3.40047 -0.808416,6.41465 -0.808416,9.04251 -0.07688,1.39132 0,3.4781 0.23104,6.26031 0.231041,2.70502 0.769537,5.41005 1.616383,8.11464 0.846844,2.62785 2.07846,4.94657 3.69484,6.95571 1.693694,2.00962 3.925878,3.01419 6.697456,3.01419 2.309051,0 4.58012,-0.69544 6.812306,-2.08678 2.232636,-1.46805 4.233783,-3.43905 6.004339,-5.91212 1.847419,-2.55071 3.348509,-5.56442 4.503259,-9.04249 1.23161,-3.47766 1.92428,-7.30346 2.07846,-11.477 z m 63.96837,-16.46171 c -0.0769,1.31371 -0.23059,2.43448 -0.46162,3.36188 -0.15419,0.92741 -0.26948,1.77765 -0.34634,2.5507 -0.0769,0.69545 -0.0384,1.35229 0.1153,1.97056 0.15372,0.61827 0.57737,1.31371 1.27004,2.08676 -2.07845,-0.61826 -3.96431,-1.04315 -5.658,-1.27511 -1.69325,-0.30912 -3.19433,-0.54111 -4.50326,-0.69589 -1.46265,-0.0771 -2.77113,-0.0771 -3.92587,0 0.76998,-1.08175 1.27049,-2.2797 1.50108,-3.59341 0.30791,-1.31415 0.53894,-2.93699 0.69312,-4.86897 0.0769,-1.39132 -4.5e-4,-2.82123 -0.23104,-4.28928 -0.23104,-1.4685 -1.00102,-2.3959 -2.3095,-2.78265 -0.53894,-0.0772 -1.11632,-0.11576 -1.73212,-0.11576 -0.61581,0 -1.30848,0.19338 -2.07846,0.57968 -0.76954,0.30913 -1.65482,0.85023 -2.65539,1.62329 -1.00102,0.77261 -2.11689,1.89338 -3.3485,3.36188 -1.77056,2.08677 -3.34896,4.32787 -4.7343,6.72377 -1.38579,2.3183 -2.57897,4.63701 -3.57954,6.95575 -1.00058,2.31828 -1.80899,4.52125 -2.4248,6.60801 -0.53894,2.00914 -0.84684,3.7482 -0.92371,5.21669 0,0.2315 -0.0384,0.3863 -0.1153,0.46347 0.15418,3.01419 0.34633,5.83496 0.57737,8.46282 0.2306,2.62785 0.46163,4.86895 0.69268,6.72377 0.23103,1.77764 0.53894,3.24613 0.92371,4.40549 0.46207,1.15937 0.96214,2.12536 1.50108,2.89797 0.53894,0.69588 1.11632,1.27511 1.73212,1.73905 0.61581,0.46391 1.19319,0.88879 1.73168,1.27512 l 0.23104,2.43448 c -1.07744,-0.46348 -2.61695,-0.81121 -4.61855,-1.04317 -2.00115,-0.15484 -4.15692,-0.15484 -6.46597,0 -2.23264,0.15444 -4.50326,0.50253 -6.81275,1.04317 -2.30906,0.54109 -4.27222,1.27512 -5.8886,2.20295 l -0.34633,-2.66643 c 2.15532,-0.85023 4.11803,-2.43449 5.88859,-4.75321 1.84742,-2.39591 3.00217,-6.1055 3.46425,-11.12926 0.23059,-2.47308 0.46163,-5.02333 0.69267,-7.65117 0.3079,-2.62741 0.50051,-5.29386 0.57737,-7.99891 0.0769,-2.70502 0.0384,-5.48721 -0.1153,-8.34706 -0.15418,-2.85939 -0.57737,-5.79638 -1.27005,-8.81054 -0.61579,-2.16392 -1.30891,-4.17307 -2.07844,-6.02787 -0.61581,-1.54612 -1.42423,-2.97558 -2.4248,-4.28974 -0.92371,-1.39087 -1.96316,-2.2411 -3.11791,-2.55024 l -0.23104,-2.66644 c 0.92416,0.1548 2.07846,0.30913 3.46425,0.46392 1.46265,0.15434 3.00217,0.30913 4.61855,0.46348 1.61683,0.0772 3.27164,0.11576 4.96533,0.11576 1.69325,0 3.31007,-0.0772 4.84959,-0.23196 -0.3079,1.39132 -0.73155,3.98015 -1.27049,7.76737 -0.46163,3.78678 -0.8464,8.03748 -1.1543,12.75211 1.00057,-2.31873 2.30905,-4.90756 3.92588,-7.76738 1.61638,-2.85938 3.50223,-5.48724 5.65755,-7.88314 2.15533,-2.3959 4.58012,-4.32787 7.27439,-5.79637 2.69426,-1.54566 5.658,-2.16393 8.89121,-1.8548 1.92429,0.23196 3.50223,0.88882 4.73385,1.97101 1.30892,1.08174 2.3095,2.35686 3.00217,3.82536 0.76998,1.4685 1.27049,3.01417 1.50108,4.637 0.3079,1.6233 0.42365,3.09179 0.34634,4.4055 z m 4.84959,18.54849 c 0.23104,-4.55985 1.19319,-8.81053 2.88688,-12.75213 1.77056,-3.94156 4.04117,-7.30344 6.8123,-10.08565 2.77113,-2.85937 5.88905,-5.02376 9.35285,-6.4918 3.54111,-1.4685 7.19752,-1.97101 10.96965,-1.50709 3.77171,0.46348 6.65814,1.62284 8.65976,3.47765 2.07845,1.8548 3.54108,3.94156 4.38795,6.26029 0.84639,2.24111 1.30846,4.48221 1.38534,6.72377 0.0767,2.2411 0.0767,3.98015 0,5.21669 -0.0767,1.15935 -0.23059,2.4345 -0.46165,3.82582 -0.15424,1.39087 -0.34676,2.78218 -0.57735,4.17308 -0.15424,1.31413 -0.23106,2.58927 -0.23106,3.8258 0,1.15937 0.11528,2.12536 0.34634,2.89843 -1.92472,-0.61827 -4.15692,-1.27562 -6.69701,-1.97102 -2.54054,-0.77263 -5.31166,-1.35228 -8.31384,-1.73906 -2.9253,-0.38628 -6.00433,-0.50207 -9.23709,-0.34772 -3.15635,0.0771 -6.31224,0.61826 -9.46859,1.62329 -0.0769,2.93653 0.11574,5.87354 0.57738,8.81053 0.53894,2.85937 1.38578,5.603 2.54054,8.23085 1.00057,2.2411 2.15532,4.21212 3.4638,5.91214 1.30847,1.70046 2.69426,3.01415 4.15692,3.94158 1.53951,0.85023 3.07903,1.31413 4.61853,1.39131 1.61638,0.0771 3.23323,-0.38674 4.84961,-1.39131 1.30846,-0.92741 2.30949,-2.04818 3.00214,-3.36192 0.61581,-1.08175 0.84688,-2.39586 0.69269,-3.94156 -0.0767,-1.54567 -0.88483,-3.32331 -2.42479,-5.33245 l 14.43347,-0.69589 c -0.53895,1.54568 -1.34692,3.47812 -2.4248,5.7964 -1.00057,2.31873 -2.38635,4.55983 -4.15692,6.72423 -1.77056,2.16392 -3.96432,3.98014 -6.58171,5.44816 -2.61696,1.46853 -5.77331,2.12582 -9.46813,1.97102 -3.69485,-0.23196 -7.04335,-1.4299 -10.04552,-3.59386 -2.92531,-2.08676 -5.38853,-4.83039 -7.38968,-8.23084 -2.0016,-3.40048 -3.50268,-7.22628 -4.50325,-11.47698 -1.00103,-4.32787 -1.38579,-8.77195 -1.15476,-13.33176 z m 28.63592,-27.8225 c -2.15533,-0.23196 -4.27221,0.30913 -6.35068,1.62284 -2.0016,1.3137 -3.84902,3.20709 -5.54226,5.68061 -1.61683,2.3959 -3.00217,5.25527 -4.15692,8.57859 -1.15475,3.32329 -1.96316,6.80093 -2.42479,10.43337 4.3875,-0.54109 8.46756,-0.81119 12.23927,-0.81119 3.77214,-0.0771 7.27437,0.15444 10.50758,0.69544 0.84685,-1.77763 1.61638,-4.05732 2.30949,-6.83999 0.69269,-2.85937 1.00058,-5.64158 0.92372,-8.34661 -0.0767,-2.78221 -0.69267,-5.21669 -1.84741,-7.30346 -1.07787,-2.08676 -2.96374,-3.3233 -5.658,-3.7096 z m 80.94239,54.94998 c -0.23105,1.00459 -0.61583,2.12536 -1.15476,3.36189 -0.53895,1.15938 -1.30892,2.20251 -2.30949,3.12994 -1.00058,1.00457 -2.2322,1.73903 -3.69486,2.2025 -1.3858,0.5411 -3.0406,0.57969 -4.96533,0.11568 -1.92427,-0.46348 -3.46381,-1.54568 -4.61852,-3.24569 -1.07746,-1.70046 -1.84745,-3.86438 -2.30908,-6.49225 -0.69313,1.08219 -1.5784,2.24156 -2.65584,3.4781 -1.00101,1.15893 -2.23263,2.20252 -3.69483,3.12993 -1.3858,1.00457 -3.00218,1.77762 -4.85003,2.3187 -1.7701,0.61827 -3.73329,0.84981 -5.88858,0.69545 -2.92533,-0.23196 -5.54228,-1.04361 -7.85178,-2.43449 -2.23221,-1.31415 -4.11848,-3.01417 -5.65802,-5.10093 -1.5395,-2.16392 -2.69426,-4.59841 -3.46381,-7.30343 -0.69263,-2.70505 -0.88527,-5.52582 -0.57735,-8.46283 0.30789,-2.93699 1.07788,-5.44866 2.3095,-7.53542 1.30847,-2.08676 2.92486,-3.7482 4.84959,-4.98471 1.92426,-1.31415 4.11804,-2.20254 6.58127,-2.66645 2.46368,-0.46348 5.00375,-0.5797 7.62115,-0.34772 3.46381,0.3863 6.35067,1.42991 8.65973,3.12993 2.30951,1.62328 4.08005,3.4395 5.31167,5.44864 0.38477,-3.55482 0.50007,-7.34204 0.34633,-11.3608 -0.15424,-4.09636 -0.76997,-7.80596 -1.84741,-11.12925 -1.07787,-3.40047 -2.7327,-6.18268 -4.96535,-8.34661 -2.23217,-2.24156 -5.27278,-3.3233 -9.12179,-3.24613 -2.69426,0 -4.92645,0.50251 -6.697,1.50708 -1.69368,0.92741 -3.07904,2.04818 -4.15692,3.36189 -1.00057,1.31371 -1.69326,2.66644 -2.07847,4.05777 -0.38476,1.31371 -0.57737,2.35687 -0.57737,3.12993 0,0.77261 0.23103,1.66142 0.69311,2.66644 0.46163,0.92739 1.11588,1.8162 1.96273,2.66599 0.84683,0.77304 1.84741,1.39131 3.00216,1.85524 1.15476,0.4635 2.46322,0.57924 3.9259,0.34772 1.00102,-0.15484 1.88585,-0.50249 2.65582,-1.04359 0.76999,-0.54109 1.3858,-1.15937 1.84741,-1.8548 0.46208,-0.69545 0.76999,-1.4299 0.92373,-2.20252 0.23102,-0.77306 0.34632,-1.50708 0.34632,-2.20252 0,-0.77306 -0.23106,-1.42991 -0.69267,-1.97101 -0.46208,-0.61827 -1.00057,-1.08219 -1.61638,-1.39133 -0.61583,-0.30913 -1.30892,-0.3863 -2.07845,-0.23196 -0.76999,0.0772 -1.46266,0.42534 -2.07847,1.04361 0.69269,-0.0772 1.38532,0.0772 2.07847,0.46347 0.69267,0.30914 1.039,1.00502 1.039,2.08677 0,0.85023 -0.34633,1.50708 -1.039,1.97101 -0.69315,0.3863 -1.46266,0.54108 -2.30951,0.46346 -0.84683,-0.0771 -1.61639,-0.42488 -2.3095,-1.04314 -0.69267,-0.69544 -1.03901,-1.73905 -1.03901,-3.12993 0,-1.31415 0.53897,-2.43448 1.61638,-3.36188 1.15476,-0.92785 2.46322,-1.39133 3.9259,-1.39133 1.77054,0 3.38737,0.69544 4.84959,2.08676 1.5395,1.39088 2.30949,3.3233 2.30949,5.79638 0,0.85022 -0.23106,1.77761 -0.69267,2.78218 -0.3852,0.92741 -1.00101,1.81624 -1.84744,2.66644 -0.84682,0.85025 -1.96315,1.58428 -3.34893,2.20255 -1.38536,0.54108 -3.00175,0.81165 -4.84959,0.81165 -1.84743,0 -3.50223,-0.34773 -4.96489,-1.04362 -1.46266,-0.7726 -2.69426,-1.70001 -3.69484,-2.78218 -1.00057,-1.1594 -1.77056,-2.39591 -2.30949,-3.70964 -0.46165,-1.39131 -0.69269,-2.70502 -0.69269,-3.94155 0,-1.23654 0.38477,-2.78221 1.15474,-4.63701 0.76955,-1.93242 1.96272,-3.74863 3.57955,-5.44865 1.69326,-1.70046 3.77171,-3.16896 6.23493,-4.40549 2.54053,-1.23653 5.54272,-1.8548 9.00653,-1.8548 9.31441,0 15.74194,3.28471 19.28306,9.85414 3.54065,6.49181 4.11804,16.19118 1.73166,29.09761 -0.92369,5.17811 -1.42378,9.39022 -1.5011,12.63635 -0.0767,3.24613 0.11568,5.83496 0.57741,7.76736 0.46206,1.932 1.11631,3.28429 1.96315,4.05734 0.92371,0.77305 1.88586,1.23653 2.88644,1.39132 0.84685,0.15444 1.65526,0.0771 2.42477,-0.23197 0.61583,-0.15484 1.1932,-0.5025 1.73215,-1.04359 0.61579,-0.61826 1.03945,-1.54565 1.27006,-2.78221 z m -19.5141,-5.91256 c -0.0769,-2.78221 0.0384,-5.7192 0.34632,-8.81053 -0.61581,-2.39591 -1.88587,-4.59845 -3.81057,-6.60803 -1.84745,-2.08676 -3.96432,-3.32329 -6.3507,-3.7096 -1.7701,-0.30914 -3.61751,-0.27054 -5.54224,0.11568 -1.84744,0.30915 -3.50225,1.00457 -4.96491,2.08676 -1.46264,1.00458 -2.6174,2.43449 -3.46423,4.28931 -0.84685,1.8548 -1.15475,4.13494 -0.92371,6.83997 0.38477,4.17306 1.53952,7.34203 3.46423,9.50598 2.00117,2.16394 4.92647,3.12993 8.77547,2.89841 2.92488,-0.15484 5.38855,-0.88927 7.3897,-2.20297 2.07847,-1.39089 3.77216,-2.85939 5.08064,-4.40504 z m 22.63154,-26.43161 c 0.15424,-3.70962 0.88529,-7.38062 2.19377,-11.01307 1.38578,-3.70961 3.19477,-6.99432 5.42698,-9.85414 2.23215,-2.93655 4.81113,-5.25528 7.73643,-6.95574 2.92487,-1.70001 6.04279,-2.43448 9.35288,-2.20252 2.54008,0.1548 4.73383,0.81164 6.58125,1.97101 1.84743,1.08174 3.42579,2.51165 4.73429,4.28928 1.38578,1.70002 2.5401,3.67102 3.46379,5.91213 0.92417,2.16394 1.69369,4.40549 2.3095,6.72377 -0.15425,-4.71418 -0.38475,-9.50597 -0.69264,-14.37494 -0.30794,-4.86897 -0.76999,-9.4288 -1.38581,-13.6795 -0.38475,-2.78221 -0.84684,-5.52583 -1.38533,-8.23086 -0.4621,-2.31872 -1.03945,-4.71462 -1.73214,-7.18769 -0.61581,-2.55024 -1.34734,-4.83038 -2.19375,-6.83953 3.38695,0.5411 7.08178,1.00457 11.08452,1.39088 4.08006,0.30913 8.62174,-0.30914 13.62506,-1.85481 v 2.31873 c -1.1543,0.30913 -2.34746,0.65686 -3.5791,1.04316 -1.23161,0.30913 -2.34791,0.88882 -3.34894,1.73905 -0.92372,0.85023 -1.73169,2.08676 -2.4248,3.7096 -0.61581,1.54567 -0.96213,3.67102 -1.03899,6.37605 -0.0767,1.8548 -0.11529,4.21212 -0.11529,7.07194 v 9.38977 10.78154 c 0.0767,3.70961 0.15385,7.38062 0.23103,11.01304 0.0769,3.55528 0.15384,6.95577 0.23104,10.20186 0.15424,3.16854 0.3079,5.95073 0.46209,8.34663 0.23058,3.55524 0.69267,6.45367 1.38534,8.69477 0.69267,2.2411 1.57794,4.05732 2.65583,5.44864 1.07744,1.31371 2.30906,2.35732 3.69484,3.12993 1.38578,0.77307 2.88688,1.42991 4.50326,1.97102 l -0.57739,2.08674 c -1.30845,-0.23194 -2.88642,-0.4639 -4.7343,-0.69589 -1.84739,-0.2315 -3.81012,-0.34772 -5.88857,-0.34772 -2.07847,0 -4.2338,0.11608 -6.46599,0.34772 -2.23263,0.23199 -4.3111,0.65687 -6.23537,1.27514 0.61581,-2.85937 1.23162,-5.64158 1.84742,-8.34661 0.61581,-2.70503 1.11632,-5.83496 1.50109,-9.39022 -0.84684,1.8548 -2.00159,3.86438 -3.46381,6.02833 -1.38578,2.16394 -3.07949,4.17354 -5.08062,6.02832 -1.92474,1.85482 -4.15692,3.36191 -6.69701,4.52126 -2.54054,1.15892 -5.31168,1.62284 -8.31382,1.39088 -3.61802,-0.2315 -6.62016,-1.3523 -9.00653,-3.36188 -2.30904,-2.00916 -4.15648,-4.52126 -5.54228,-7.53541 -1.30846,-3.09134 -2.19374,-6.49181 -2.65582,-10.20143 -0.46161,-3.7096 -0.61579,-7.41965 -0.46161,-11.12925 z m 26.67275,-25.38846 c -2.23218,-0.0772 -4.34907,0.54109 -6.35069,1.85525 -1.92427,1.3137 -3.65638,3.16851 -5.1959,5.5644 -1.53952,2.31873 -2.80956,5.10094 -3.81057,8.34662 -0.92374,3.16896 -1.50111,6.60802 -1.73169,10.31761 -0.23104,3.8644 -0.11568,7.11054 0.34633,9.73796 0.46162,2.62785 1.19319,4.79179 2.19377,6.49225 1.07743,1.70002 2.38637,2.97557 3.92587,3.82534 1.61639,0.85025 3.34849,1.35277 5.19594,1.5071 3.07902,0.30914 5.81172,-0.11569 8.19808,-1.27512 2.38637,-1.15937 4.38796,-2.70502 6.00432,-4.63702 1.61639,-1.93197 2.84802,-4.01873 3.69486,-6.26027 0.92371,-2.31828 1.42422,-4.48223 1.50108,-6.49181 0.0769,-1.93244 -0.1926,-4.48266 -0.80841,-7.65119 -0.61581,-3.24612 -1.53951,-6.41464 -2.77114,-9.50642 -1.15428,-3.16851 -2.61696,-5.91213 -4.38753,-8.23086 -1.77052,-2.31827 -3.77213,-3.51622 -6.00432,-3.59384 z m 78.17126,56.80522 c -0.46206,1.62286 -1.15473,3.36191 -2.07847,5.21669 -0.84683,1.85482 -2.00158,3.59386 -3.46423,5.2167 -1.46266,1.62283 -3.23276,2.97557 -5.31123,4.05732 -2.00159,1.15937 -4.31108,1.81622 -6.92804,1.97098 -1.84743,0.15444 -3.61797,0 -5.31166,-0.46393 -1.61638,-0.38628 -3.11748,-0.96599 -4.50326,-1.73857 -1.30848,-0.77307 -2.46324,-1.6619 -3.46381,-2.66645 -1.0006,-1.00503 -1.77055,-2.0096 -2.3095,-3.01417 -0.92371,-2.0096 -1.42376,-4.01874 -1.50108,-6.02834 -0.0767,-2.08677 0.30837,-3.90298 1.15474,-5.44862 1.23164,-2.00962 2.5401,-3.28475 3.92589,-3.82582 1.46265,-0.54064 2.84845,-0.88881 4.15692,-1.04315 1.23162,-0.15484 2.50166,-0.0771 3.81014,0.23194 1.30892,0.30917 2.46366,0.81165 3.46423,1.5071 1.00059,0.69545 1.80901,1.58425 2.42481,2.66645 0.61579,1.00457 0.88526,2.16394 0.80842,3.47763 -0.0767,1.08221 -0.38479,2.08678 -0.92418,3.01417 -0.4616,0.85023 -1.07741,1.58428 -1.84738,2.20253 -0.76955,0.69588 -1.57799,1.19795 -2.42482,1.50707 -0.84641,0.38676 -1.61638,0.54111 -2.30903,0.46393 -1.0779,-0.15485 -2.19423,-0.54109 -3.34853,-1.15936 -1.15476,-0.5411 -1.80899,-1.39133 -1.96317,-2.55024 -0.15384,-1.15938 -0.0384,-2.20297 0.34635,-3.13038 0.46206,-1.00457 1.15475,-1.70001 2.07845,-2.08676 1.3858,-0.54064 2.46323,-0.73402 3.23322,-0.57922 0.8464,0.0771 1.42376,0.34726 1.73167,0.81119 0.3852,0.46392 0.61583,0.96599 0.69313,1.50707 0.0769,0.54111 0.0769,0.96599 0,1.27513 -0.23105,0.77305 -0.61583,1.31416 -1.15476,1.6233 -0.46207,0.30912 -1.07787,0.42487 -1.84743,0.34772 -0.76997,-0.15484 -1.73212,-0.6959 -2.88686,-1.62331 -0.2306,0.85025 -0.192,1.54569 0.11529,2.08678 0.3079,0.54111 0.6931,0.92739 1.15475,1.15937 0.53893,0.30912 1.23162,0.50249 2.07845,0.57967 1.61639,0.15484 2.88688,-0.34773 3.8106,-1.50708 0.92371,-1.23653 1.30848,-2.58928 1.15429,-4.05734 -0.0767,-1.46848 -0.76953,-2.78265 -2.07801,-3.94156 -1.30892,-1.15937 -3.34894,-1.66186 -6.12008,-1.50708 -1.69325,0.15445 -3.00217,0.69543 -3.92588,1.62286 -0.92369,0.92739 -1.53952,2.04816 -1.84741,3.36188 -0.30792,1.23653 -0.30792,2.55022 0,3.94156 0.38521,1.39131 1.00102,2.58928 1.84741,3.59385 0.92371,1.08219 1.96317,1.93196 3.11792,2.55023 1.1543,0.61827 2.34748,1.04361 3.5791,1.27557 1.23205,0.23152 2.46367,0.27011 3.69527,0.11568 1.23162,-0.0771 2.38637,-0.34772 3.46381,-0.81164 1.23162,-0.54109 2.46323,-1.50708 3.69483,-2.89841 1.23164,-1.39088 2.15577,-3.05276 2.77158,-4.98472 0.61581,-2.00962 0.73111,-4.21212 0.34635,-6.60802 -0.30791,-2.47307 -1.42424,-4.98472 -3.34895,-7.53542 -1.00058,-1.39088 -2.80958,-3.01415 -5.42652,-4.86897 -2.6174,-1.93196 -5.42696,-3.98014 -8.42914,-6.14408 -3.00217,-2.24111 -5.88905,-4.55985 -8.66019,-6.95574 -2.69426,-2.3959 -4.65696,-4.86897 -5.88856,-7.41921 -1.15476,-2.47307 -1.77057,-5.3329 -1.84787,-8.57903 -0.0769,-3.24568 0.65467,-6.37605 2.19417,-9.38977 1.53955,-3.01416 4.04118,-5.71919 7.50543,-8.11509 3.54069,-2.3959 8.27498,-3.98015 14.20199,-4.75321 4.2338,-0.5411 8.08281,-0.23197 11.54706,0.9274 3.54065,1.15936 6.46598,2.85982 8.77547,5.10093 2.30905,2.24111 3.84856,4.94614 4.61853,8.1151 0.84687,3.09133 0.69269,6.33746 -0.46205,9.73793 -0.30792,1.08175 -0.84641,2.20252 -1.6164,3.36189 -0.69267,1.15936 -1.61639,2.24111 -2.77112,3.24612 -1.07788,1.00457 -2.38636,1.81622 -3.9259,2.43449 -1.5395,0.54064 -3.23319,0.73403 -5.08061,0.57925 -1.38534,-0.0771 -2.848,-0.42489 -4.38751,-1.04318 -1.53952,-0.69542 -2.96372,-1.54565 -4.27222,-2.55022 -1.30894,-1.08219 -2.46367,-2.28016 -3.46425,-3.59386 -1.00057,-1.31416 -1.6164,-2.70503 -1.84741,-4.17353 -0.6158,-3.24613 -0.11528,-5.87354 1.50107,-7.88314 1.6937,-2.00959 4.27222,-3.16851 7.73603,-3.47764 1.53996,-0.0772 2.96374,0.19336 4.27268,0.8112 1.30846,0.54109 2.42477,1.27511 3.34849,2.20297 0.92369,0.9274 1.61638,2.00914 2.07845,3.24568 0.46162,1.15936 0.61581,2.24155 0.46162,3.24612 -0.46162,3.47765 -2.38635,5.44865 -5.77328,5.91213 -1.23162,0.1548 -2.579,-0.0386 -4.04118,-0.57923 -1.3858,-0.5411 -2.38637,-1.58471 -3.00218,-3.13037 -0.38521,-1.08175 -0.46207,-2.31873 -0.23104,-3.70961 0.2306,-1.4685 1.00057,-2.55024 2.30905,-3.24613 0.61583,-0.30913 1.27052,-0.42489 1.96317,-0.34772 0.76953,0.0772 1.42422,0.30914 1.96273,0.69589 0.53892,0.30913 0.92369,0.77261 1.15475,1.39088 0.23103,0.61827 0.23103,1.35274 0,2.20252 -0.23058,0.5411 -0.57738,0.96644 -1.03903,1.27557 -0.38477,0.23151 -0.9237,0.3863 -1.61682,0.46347 -0.69267,0 -1.61639,-0.27054 -2.77112,-0.81119 0.0769,1.00457 0.34632,1.7386 0.80839,2.20252 0.53896,0.46348 1.11633,0.77261 1.73214,0.9274 0.69267,0.23152 1.42378,0.34772 2.19375,0.34772 1.38534,-0.1548 2.4248,-0.5411 3.11747,-1.15936 0.76999,-0.69544 1.23162,-1.4685 1.38582,-2.31873 0.15384,-0.9274 0,-1.89339 -0.46211,-2.89796 -0.46165,-1.00502 -1.23162,-1.97101 -2.30903,-2.89841 -1.53954,-1.15936 -3.34853,-1.70001 -5.42698,-1.62284 -2.07845,0 -3.88744,0.85023 -5.42696,2.55024 -2.00161,2.47307 -2.54053,4.90756 -1.61684,7.30346 1.00103,2.39589 2.96372,4.3669 5.88904,5.91258 0.46163,0.23152 1.00058,0.50206 1.61639,0.81164 0.69311,0.30913 1.46264,0.50205 2.30949,0.57923 0.92371,0 1.92429,-0.15444 3.00218,-0.46346 1.07742,-0.30913 2.30906,-0.92741 3.69486,-1.8548 2.07845,-1.39135 3.31006,-3.24615 3.69483,-5.56488 0.38521,-2.31828 0.1926,-4.637 -0.57739,-6.95528 -0.69265,-2.31873 -1.92429,-4.40549 -3.69485,-6.26029 -1.69369,-1.85481 -3.65641,-3.01417 -5.88857,-3.4781 -2.46369,-0.46347 -4.69586,-0.57923 -6.69747,-0.34771 -1.92429,0.1548 -3.65642,0.54109 -5.19592,1.15936 -1.53954,0.54109 -2.92488,1.23653 -4.15648,2.08676 -1.2316,0.77306 -2.30949,1.54567 -3.23322,2.31873 -0.38475,0.38631 -0.96214,1.08174 -1.73211,2.08676 -0.76953,1.00458 -1.4242,2.2797 -1.96273,3.82537 -0.53893,1.46849 -0.80839,3.20754 -0.80839,5.21668 0.0767,1.93243 0.76951,4.01919 2.07845,6.2603 1.23162,2.16394 2.80954,4.05732 4.73383,5.68062 2.00161,1.54567 4.08008,3.01417 6.23539,4.40504 2.23219,1.31416 4.42638,2.62787 6.58171,3.94156 2.15533,1.23654 4.07962,2.58927 5.77331,4.05779 1.84742,1.54567 3.31006,3.32331 4.38752,5.33243 1.15474,1.93244 2.00159,3.94158 2.54054,6.02834 0.61581,2.00958 0.92369,3.94156 0.92369,5.79636 0.0767,1.8548 -0.0384,3.40048 -0.34635,4.63701 z" />
</svg>
